<svg width="45" height="41" viewBox="0 0 45 41" fill="none" xmlns="http://www.w3.org/2000/svg">
<g id="Add">
<rect id="Base" x="0.527832" y="0.660156" width="43.865" height="39.7527" rx="8.9375" fill="#323142"/>
<g id="+">
<mask id="path-2-inside-1_1_14439" fill="white">
<path d="M29.4277 21.7535H23.0831V28.1875H20.5512V21.7535H14.2363V19.4599H20.5512V12.9961H23.0831V19.4599H29.4277V21.7535Z"/>
</mask>
<path d="M29.4277 21.7535H23.0831V28.1875H20.5512V21.7535H14.2363V19.4599H20.5512V12.9961H23.0831V19.4599H29.4277V21.7535Z" fill="black"/>
<path d="M29.4277 21.7535V25.8658H33.5401V21.7535H29.4277ZM23.0831 21.7535V17.6412H18.9707V21.7535H23.0831ZM23.0831 28.1875V32.2999H27.1954V28.1875H23.0831ZM20.5512 28.1875H16.4388V32.2999H20.5512V28.1875ZM20.5512 21.7535H24.6635V17.6412H20.5512V21.7535ZM14.2363 21.7535H10.124V25.8658H14.2363V21.7535ZM14.2363 19.4599V15.3475H10.124V19.4599H14.2363ZM20.5512 19.4599V23.5722H24.6635V19.4599H20.5512ZM20.5512 12.9961V8.88375H16.4388V12.9961H20.5512ZM23.0831 12.9961H27.1954V8.88375H23.0831V12.9961ZM23.0831 19.4599H18.9707V23.5722H23.0831V19.4599ZM29.4277 19.4599H33.5401V15.3475H29.4277V19.4599ZM29.4277 17.6412H23.0831V25.8658H29.4277V17.6412ZM18.9707 21.7535V28.1875H27.1954V21.7535H18.9707ZM23.0831 24.0752H20.5512V32.2999H23.0831V24.0752ZM24.6635 28.1875V21.7535H16.4388V28.1875H24.6635ZM20.5512 17.6412H14.2363V25.8658H20.5512V17.6412ZM18.3487 21.7535V19.4599H10.124V21.7535H18.3487ZM14.2363 23.5722H20.5512V15.3475H14.2363V23.5722ZM24.6635 19.4599V12.9961H16.4388V19.4599H24.6635ZM20.5512 17.1084H23.0831V8.88375H20.5512V17.1084ZM18.9707 12.9961V19.4599H27.1954V12.9961H18.9707ZM23.0831 23.5722H29.4277V15.3475H23.0831V23.5722ZM25.3154 19.4599V21.7535H33.5401V19.4599H25.3154Z" fill="white" mask="url(#path-2-inside-1_1_14439)"/>
</g>
</g>
</svg>
