<svg width="24" height="24" viewBox="0 0 24 24" fill="none" xmlns="http://www.w3.org/2000/svg">
<g id="Star">
<path id="Edit Color" d="M15.0086 19.4782C16.5333 20.3128 17.8742 19.3013 17.5826 17.5312L17.059 14.353L19.2769 12.1021C20.5104 10.8503 20.0008 9.21002 18.2937 8.95176L15.2287 8.48806L13.8647 5.61069C13.1007 3.99893 11.4418 3.9816 10.6764 5.59639L9.30562 8.48806L6.24056 8.95176C4.53591 9.20965 4.02215 10.8485 5.25739 12.1021L7.47529 14.353L6.95171 17.5312C6.66052 19.2988 7.99884 20.314 9.52568 19.4782L12.2671 17.9777L15.0086 19.4782Z" fill="#6C5FBC"/>
<mask id="mask0_1_14445" style="mask-type:luminance" maskUnits="userSpaceOnUse" x="4" y="4" width="16" height="16">
<path id="Edit Color_2" d="M15.0086 19.4782C16.5333 20.3128 17.8742 19.3013 17.5826 17.5312L17.059 14.353L19.2769 12.1021C20.5104 10.8503 20.0008 9.21002 18.2937 8.95176L15.2287 8.48806L13.8647 5.61069C13.1007 3.99893 11.4418 3.9816 10.6764 5.59639L9.30562 8.48806L6.24056 8.95176C4.53591 9.20965 4.02215 10.8485 5.25739 12.1021L7.47529 14.353L6.95171 17.5312C6.66052 19.2988 7.99884 20.314 9.52568 19.4782L12.2671 17.9777L15.0086 19.4782Z" fill="white"/>
</mask>
<g mask="url(#mask0_1_14445)">
</g>
</g>
</svg>
